<?xml version="1.0" encoding="UTF-8"?>
<svg id="Layer_1" xmlns="http://www.w3.org/2000/svg" version="1.1" viewBox="0 0 573 600">
  <!-- Generator: Adobe Illustrator 29.6.1, SVG Export Plug-In . SVG Version: 2.1.1 Build 9)  -->
  <path d="M479,471.5c-1.26,12.22-5.72,14.15-17.21,11.21-4.41-1.13-12.5-6.07-15.5-6.53-1.16-.18-3.16.07-3.26,1.3-.14,1.76,13.45,26.39,15.02,31.96,2.19,7.73,1.18,11.24-4.59,16.52-4.89,4.47-24.41,15.3-30.45,12.52-7.21-3.33-18.4-29.52-21.5-37.5-6.81-17.51-13.78-38.73-19.23-56.77-2.16-7.16-7.57-22.59-5.81-29.24,2.16-8.17,28.22-22.91,36.04-22.81,8.73.12,26.21,20.06,34.01,25.82,1.38,1.02,6.07,5.21,7.46,4.03,2.12-8.19-.71-17.17-1.03-25.46s-1.6-23.61,4.02-29.78c5.18-5.68,34.23-23.71,41.97-27.31,10.23-4.75,13.93-5.7,21.48,3.61,8.76,10.79,26.59,40.46,32.75,53.25,8.21,17.05,4.74,21.83-4.38,36.99-6.05,10.05-26.81,39.14-35.28,45.68-15.19,11.74-22.68-18.41-30.1-25.91-1.12-1.13-4.43-2.99-4.43-.58,0,5.95.59,13.29,0,19Z"/>
  <path d="M397.66,549.66c-9.45,10.84-35.61,21.08-49.63,23.87-33.64,6.7-109.16,1.31-141.23-11.83-32.55-13.34-15.75-43.67-6.57-67.96,6.23-16.47,13.48-35.4,20.58-51.42,2.12-4.79,6.48-15.77,10.24-18.76,6.18-4.91,23.59-4.36,31.33-3.45,10.48,1.23,10.59,6.74,9.51,16.29-2.12,18.66-17.86,51.78-12.6,69.82,1.69,5.8,4.08,5.78,9.69,7.3,14.26,3.86,37.98,3.61,51.7-2.32s11.19-14.54,7.59-26.98c-4.67-16.14-15.5-36.92-18.04-52.95-2.7-17.09,24.78-22.39,37.38-23.13,9.59-.56,14.84.4,19.56,9.19,8.69,16.19,17.7,50.57,23.54,69.46,3.72,12.05,9.24,27.26,11.81,39.18,1.83,8.51,1.08,16.86-4.88,23.69Z"/>
  <path d="M99.34,420.34c-14.67,15.36,16.96,46.73,31.39,51.43,16.06,5.24,7.79-13.48,21.51-11.57,7.64,1.06,33.49,17.03,37.6,23.46,7.9,12.34-4.42,32.13-12.42,42.25-7.48,9.46-16.41,15.57-28.78,10.96-31.06-11.57-86.52-69.72-103.46-98.54-14.11-24.01-16.53-38.48,2.31-60.34,27.25-31.62,38.76-17.73,69.84-3.81,13.8,6.18,27.73,12.53,41.71,18.29s43.12,13.44,53.31,21.69,4.92,25.84.67,36.36c-3.21,7.94-5.76,15.58-15.52,15.57-12.39-.02-51.82-31.6-65.58-39.5-8.33-4.79-24.29-14.93-32.58-6.24Z"/>
  <path d="M495.65,261.35c3.44,3.36,6.43,12.3,1.94,15.74-5.33,4.09-32.45-8.24-24.26,14.1,4.59,12.51,27.19-5.55,23.6,16.25-1.21,7.37-21.23,12.1-19.93,18.04.39,1.8,1.53,1.1,2.66.7,4.78-1.69,21.15-14.51,23.1-4.49,2.04,10.48-4.77,14.61-12.73,18.84-4.92,2.62-23.96,11.59-28.31,10.28-8.52-2.56-11.58-26.58-12.59-34.43-2.18-16.92-4.67-40.03-5.11-56.89-.32-12.37.93-17.62,14.84-14.85,6.62,1.32,32.23,12.25,36.8,16.7Z"/>
  <path d="M359.74,205.24c7.5-1.33,29.67,5.74,35.16,11.37s10.94,23.65,13.37,31.63c6.77,22.24,9.77,44.62,13.49,67.51,2.13,4.48,6.03.05,10.75.17,2.57.07,4.85.48,6.38,2.7,3.72,5.44,8,33.03,6.88,39.65-2.46,14.53-27.43,25.22-39.77,30.22-10.88,4.41-38.4,17.33-40.9-1.07-2.32-17.1,2.25-40.38,2.95-57.87.78-19.41-1.18-41.69-4.16-60.92-2.51-16.17-10.45-37.79-10.94-53.1-.18-5.56.89-9.22,6.8-10.28Z"/>
  <path d="M255.34,304.34c1.63-1.64,6.3-3.32,8.62-3.88,12.58-3.04,58.34-3.37,71.02.07,20.37,5.53,27.52,25.96,16.85,43.79-2.01,3.35-10.14,10.76-10.63,12.39-1.48,4.91,4.23,11.44,4.56,17.03.95,16.05-21.18,31.26-34.51,36-11.78,4.19-40.04,9.65-49.24-.25-9.66-10.4-11.47-43.72-12.05-57.95-.43-10.48-1.79-40,5.38-47.2ZM323.65,320.21c-5.66.52-10.2,11.07-.9,13.55,11.27,3,10.04-14.39.9-13.55ZM308.14,381.87c4.55,2.82,16.67-4.56,11.95-10.46-5.76-7.21-16.49,7.65-11.95,10.46Z"/>
  <path d="M287.77,201.26c10.41-.3,29.1-.07,38.67,2.79,8.57,2.56,20.35,10.16,19.62,20.43-.26,3.63-3.85,6.68-2.94,9.81.37,1.26,8.4,7.62,10.36,12.72,5.15,13.44-1.13,31.23-13.16,38.8-13.69,8.61-46.71,9.3-62.87,8.22-4.52-.3-17.73-2.08-21.47-3.53-8.39-3.25-9.95-20.14-10.86-28.14-1.38-12.19-3.93-37.3.69-48.06.9-2.1,1.9-3.83,3.67-5.33,7.09-6.03,28.87-7.45,38.29-7.72ZM309.74,219.19c-5.09,1.03-5.39,7.91-.78,9.39,8.02,2.57,10.49-11.36.78-9.39ZM317.29,256.31c-7.04,5.62-2.89,18.55,6.62,13.09,10.07-5.78.26-18.59-6.62-13.09Z"/>
  <path d="M227.8,210.22c7.9-.48,9.58,4.46,10.18,11.3,3.32,37.87,3.24,77.89,3.98,116.02.31,15.89,2.63,32.96,1.03,48.95-2.65,26.43-37.33,16.9-53.77,10.8-11.79-4.37-19.62-9.56-24.41-21.59-8.56-21.5-16.37-93.57-14.8-117.18.84-12.55,3.46-20.05,15.31-25.69,17.04-8.11,15.56,4.61,16.67,17.69,1.96,23.15,1.04,73.56,9.23,92.77.53,1.25,1.37,4.1,3.27,3.71,1.94-1.37,1.62-3.45,1.58-5.51-.2-10.99-3.12-23.09-4.06-34-2.16-25.12-3.26-50.53-3.8-75.78,1.9-5.47,6.44-8.08,11.12-10.88,7.26-4.35,20.1-10.1,28.48-10.61Z"/>
  <path d="M122.74,251.24c15-2.57,26.27,6.3,23.04,22.04-1.02,4.99-8.69,11.78-8.71,15.22-.01,2.29,7.27,9.94,9.13,13.81,5.4,11.26,5.93,28.77,4.79,41.18-2.78,30.25-25.64,25.55-46.97,17-7.63-3.06-26.97-13.01-32.5-18.5-9.29-9.21-11-40.67-6.02-51.99,5.49-12.47,44.07-36.51,57.24-38.76ZM120.76,267.16c-6.52,1.04-14.17,12.99-2.49,10.61,8.22-1.67,10.65-11.92,2.49-10.61ZM123.71,311.3c-7.27-5.9-14.05,6.79-8.02,10.77,5.71,3.77,14.5-5.52,8.02-10.77Z"/>
  <path d="M492.72,98.23c16.2-3.29,37.37,23.93,43.65,36.9,8.02,16.56,5.62,34.88-8.37,47.39-3.24,2.9-16.49,10.26-17.01,12.98-.8,4.15.43,8.72,1.29,12.72,2.98,13.78,19.06,47.14,15.27,58.85-2.57,7.94-12.23,2.16-16.49-.63-6.98-4.57-20.57-15.22-22.81-23.19-1.05-3.74-.94-21.59-3.78-22.23-3.46-.78-2.28,7.17-2.72,9.26-3.95,18.67-25.27,8.79-34.29-.24-9.01-9.01-4.63-26.75-2.18-38.23,5.22-24.48,16.42-57.73,30.89-78.11,3.83-5.4,9.79-14.08,16.54-15.46ZM500.69,129.09c-3.85,1-7.26,13.49-6.75,17.45,1.47,11.33,17.17,8.3,17.15-3.05,0-3.92-6.31-15.46-10.41-14.4Z"/>
  <path d="M411.3,114.3c-3.44,2.5-5.63,13.86-3.8,17.7,2.12,4.45,29.68,8.3,31.3,13.69,2.11,7.03-4.21,21.33-12.29,21.35-7.35.02-26.38-11.19-31.81-9.88-6.86,1.66,2.34,6.06,5.52,7.11,11.07,3.66,38.17,4.19,40.53,18.46,1.26,7.6-3.14,27.72-12.31,29.2s-29.9-7.89-40.23-10.65c-7.34-1.96-28.76-4.52-32.78-9.22-5.17-6.04.21-28.12,2.05-36.07,5.76-24.82,16.86-51.93,28.34-74.66,4.24-8.38,13.72-28.61,23.72-30.28,15.02-2.51,39.83,11.14,51.76,20.13,4.65,3.51,10.63,7.23,11.49,13.59,1.2,8.83-11.99,30.89-19.9,34.62-8.35,3.94-24.42-6-34.45-6.42-1.86-.08-5.72.29-7.15,1.33Z"/>
  <path d="M294.73,20.23c5.17-.96,17.96-.63,23.32.21,17.47,2.75,15.36,13.33,10.98,27.08-2.88,9.04-16.76,32.28-16.13,38.98.57,6.07,10.87,5.73,15.58,5.47,7.56-.43,26.94-6.7,32.27-4.24,5.85,2.7,2.8,17.74,1.52,23.04-3.21,13.26-6.34,20.46-20.8,22.2-12.58,1.51-29.11,2.42-41.94,3.06-7.05.35-21.87,1.95-25.32-4.77-7.01-13.66-1.7-56.38,1.04-72.51,2.19-12.85,4.55-35.76,19.47-38.53Z"/>
  <path d="M249.79,21.29c15.69-.91,24.34-1.86,23.07,17.08-1.77,26.5-11.64,54.09-9.74,82,.72,10.59,3.2,23.46,16.38,23.71,20.3.39,41.41-8.51,62.99-6.09,9.96,1.12,9.06,8.25,8.54,16.54-.79,12.49-4.27,39.04-19.49,40.51-14.68,1.42-31.91-.78-47.04-.04-16.48.81-49.64,8.75-63.57,4.55-3.69-1.11-6.93-3.68-9.45-6.55-8.54-9.7-17.78-56.03-20.32-70.68-2.98-17.12-6.21-38.64-7.16-55.84-.42-7.67-1.59-20.75,3.59-26.39,9.78-10.65,47.68-17.97,62.19-18.81Z"/>
  <path d="M173.72,47.28c.97.99,3.77,8.52,4.18,10.32,5.45,23.87,5.2,54.56,9.23,79.77,2.72,16.98,14.25,54.34,11.63,68.9-.85,4.74-3.68,6.46-7.78,8.23-12.57,5.41-16.86,4.57-24.82-6.16-17.68-23.83-34.7-81.46-40.89-111.11-1.6-7.64-5.59-23.17-.31-28.76s37.17-24.12,44.31-23.25c.78.09,3.9,1.52,4.45,2.07Z"/>
  <path d="M84.66,265.66c-2.02,2.11-19.55,11.06-22.62,11.87-2.58.68-6.38,1.17-8.61-.46s-8.92-12.21-10.79-15.21c-9.39-15.05-26.15-47.85-25.57-65.21.06-1.91,1.22-6.22,1.88-8.21,2.71-8.2,21.43-38.05,27.23-45.77,1.54-2.05,2.78-4.24,5.77-3.64l10.14,30.86c.6.42,2.41.2,3.2-.09,3.11-1.1,8.26-16.35,9.72-20.3,6.19-16.67,10.66-34.94,17.8-51.2,1.64-3.73,8.66-18.14,11.89-19.11,10.71-3.21,13.04,13.17,14.83,20.75,9.71,41.16-3.14,48.67-15.3,83.77-4.22,12.17-3.25,11.41,7.99,15.54,11.86,4.35,24.7,6.22,36.56,10.44,22.29,7.93,10.85,16.74-2.87,25.7-7.88,5.14-21.9,13-31.36,12.62-7.64-.3-17.77-9.52-23.94-5.92-7.25,4.23-.38,17.73-5.95,23.54Z"/>
</svg>